<svg xmlns="http://www.w3.org/2000/svg" width="275" height="275" fill="none" viewBox="0 0 275 275">
  <path fill="#4D4D4D" d="M49.83 133.919c0-18.343 3.531-34.692 10.595-49.048 7.064-14.355 17.204-25.464 30.42-33.325 13.33-7.861 28.768-11.792 46.313-11.792 24.952 0 45.288 7.633 61.011 22.9 15.837 15.267 24.666 36.003 26.489 62.207l.342 12.647c0 28.369-7.918 51.155-23.755 68.359-15.836 17.09-37.085 25.635-63.745 25.635-26.66 0-47.965-8.545-63.916-25.635-15.836-17.09-23.755-40.332-23.755-69.726v-2.222zm49.389 3.589c0 17.545 3.304 30.989 9.912 40.332 6.608 9.228 16.064 13.843 28.369 13.843 11.963 0 21.305-4.558 28.028-13.672 6.722-9.229 10.083-23.926 10.083-44.092 0-17.204-3.361-30.534-10.083-39.99-6.723-9.457-16.179-14.185-28.37-14.185-12.076 0-21.419 4.728-28.027 14.185-6.608 9.342-9.912 23.869-9.912 43.579z"/>
  <mask id="a" width="177" height="193" x="49" y="39" maskUnits="userSpaceOnUse">
    <path fill="#fff" d="M49.83 133.919c0-18.343 3.531-34.692 10.595-49.048 7.064-14.355 17.204-25.464 30.42-33.325 13.33-7.861 28.768-11.792 46.313-11.792 24.952 0 45.288 7.633 61.011 22.9 15.837 15.267 24.666 36.003 26.489 62.207l.342 12.647c0 28.369-7.918 51.155-23.755 68.359-15.836 17.09-37.085 25.635-63.745 25.635-26.66 0-47.965-8.545-63.916-25.635-15.836-17.09-23.755-40.332-23.755-69.726v-2.222zm49.389 3.589c0 17.545 3.304 30.989 9.912 40.332 6.608 9.228 16.064 13.843 28.369 13.843 11.963 0 21.305-4.558 28.028-13.672 6.722-9.229 10.083-23.926 10.083-44.092 0-17.204-3.361-30.534-10.083-39.99-6.723-9.457-16.179-14.185-28.37-14.185-12.076 0-21.419 4.728-28.027 14.185-6.608 9.342-9.912 23.869-9.912 43.579z"/>
  </mask>
  <g mask="url(#a)">
    <path fill="url(#paint0_linear)" d="M19.07 95.347c15.556-6.524 14.288-34.989 22.08-30.11 9.74 6.099 0-23.084 13.549-16.56 21.714 10.455-10.977 18.645 12.296 32.007 23.274 13.362 117.508 24.346 150.898 90.045 12.812 25.21 19.341 32.653 21.836 34.543 1.508-.13 1.78 1.349 0 0-.38.033-.838.168-1.362.476-5.516 3.245-106.876 85.867-148.54 34.124C48.162 188.129 2.25 140.221 14.31 127.463c9.648-10.205 1.393-25.103 4.76-32.116z"/>
    <path fill="url(#paint1_linear)" d="M42.153 69.754c-7.791-4.88-.412 13.939-24.087 22.582-3.366 7.013 4.63 19.904-5.018 30.109-12.06 12.757 37.623 69.197 79.288 120.94 41.664 51.743 123.453-24.356 128.969-27.6 5.515-3.245 14.092 10.618-10.114-37.154-33.382-65.882-126.481-75.197-149.59-98.582-20.018-20.26 33.92-42.547 10.662-37.896-30.11 6.022-20.37 33.7-30.11 27.6z"/>
  </g>
  <defs>
    <linearGradient id="paint0_linear" x1="93.96" x2="67.62" y1="-33.993" y2="351.251" gradientUnits="userSpaceOnUse">
      <stop/>
      <stop offset="1" stop-color="#414141" stop-opacity="0"/>
    </linearGradient>
    <linearGradient id="paint1_linear" x1="88.433" x2="62.092" y1="-37.321" y2="347.924" gradientUnits="userSpaceOnUse">
      <stop stop-color="#FF005C" stop-opacity=".74"/>
      <stop offset="0"/>
      <stop offset="1" stop-color="#242424" stop-opacity="0"/>
    </linearGradient>
  </defs>
</svg>
