<svg width="256" height="256" viewBox="0 0 256 256" fill="none" xmlns="http://www.w3.org/2000/svg">
<rect width="256" height="256" rx="24" fill="#222222"/>
<path d="M40.5 131.781V128.193C40.5 114.635 42.4369 102.159 46.3106 90.7659C50.1843 79.2587 55.8239 69.2896 63.2295 60.8586C70.6351 52.4277 79.7497 45.8765 90.5733 41.2053C101.397 36.4202 113.815 34.0276 127.829 34.0276C141.843 34.0276 154.318 36.4202 165.256 41.2053C176.193 45.8765 185.365 52.4277 192.771 60.8586C200.29 69.2896 205.987 79.2587 209.86 90.7659C213.734 102.159 215.671 114.635 215.671 128.193V131.781C215.671 145.226 213.734 157.701 209.86 169.208C205.987 180.601 200.29 190.571 192.771 199.115C185.365 207.546 176.25 214.098 165.427 218.769C154.603 223.44 142.185 225.776 128.171 225.776C114.157 225.776 101.682 223.44 90.7442 218.769C79.9206 214.098 70.7491 207.546 63.2295 199.115C55.8239 190.571 50.1843 180.601 46.3106 169.208C42.4369 157.701 40.5 145.226 40.5 131.781ZM89.7188 128.193V131.781C89.7188 139.529 90.4024 146.764 91.7696 153.486C93.1368 160.208 95.3015 166.132 98.2637 171.259C101.34 176.272 105.328 180.203 110.227 183.051C115.126 185.899 121.107 187.323 128.171 187.323C135.007 187.323 140.874 185.899 145.773 183.051C150.673 180.203 154.603 176.272 157.565 171.259C160.528 166.132 162.692 160.208 164.06 153.486C165.541 146.764 166.281 139.529 166.281 131.781V128.193C166.281 120.673 165.541 113.609 164.06 107.001C162.692 100.279 160.471 94.3547 157.395 89.2278C154.432 83.9869 150.502 79.8853 145.603 76.9231C140.703 73.9609 134.779 72.4797 127.829 72.4797C120.879 72.4797 114.955 73.9609 110.056 76.9231C105.271 79.8853 101.34 83.9869 98.2637 89.2278C95.3015 94.3547 93.1368 100.279 91.7696 107.001C90.4024 113.609 89.7188 120.673 89.7188 128.193Z" fill="#FFFFFA"/>
<mask id="mask0_30_31" style="mask-type:alpha" maskUnits="userSpaceOnUse" x="40" y="34" width="176" height="192">
<path d="M40.5 131.781V128.193C40.5 114.635 42.4369 102.159 46.3106 90.7659C50.1843 79.2587 55.8239 69.2896 63.2295 60.8586C70.6351 52.4277 79.7497 45.8765 90.5733 41.2053C101.397 36.4202 113.815 34.0276 127.829 34.0276C141.843 34.0276 154.318 36.4202 165.256 41.2053C176.193 45.8765 185.365 52.4277 192.771 60.8586C200.29 69.2896 205.987 79.2587 209.86 90.7659C213.734 102.159 215.671 114.635 215.671 128.193V131.781C215.671 145.226 213.734 157.701 209.86 169.208C205.987 180.601 200.29 190.571 192.771 199.115C185.365 207.546 176.25 214.098 165.427 218.769C154.603 223.44 142.185 225.776 128.171 225.776C114.157 225.776 101.682 223.44 90.7442 218.769C79.9206 214.098 70.7491 207.546 63.2295 199.115C55.8239 190.571 50.1843 180.601 46.3106 169.208C42.4369 157.701 40.5 145.226 40.5 131.781ZM89.7188 128.193V131.781C89.7188 139.529 90.4024 146.764 91.7696 153.486C93.1368 160.208 95.3015 166.132 98.2637 171.259C101.34 176.272 105.328 180.203 110.227 183.051C115.126 185.899 121.107 187.323 128.171 187.323C135.007 187.323 140.874 185.899 145.773 183.051C150.673 180.203 154.603 176.272 157.565 171.259C160.528 166.132 162.692 160.208 164.06 153.486C165.541 146.764 166.281 139.529 166.281 131.781V128.193C166.281 120.673 165.541 113.609 164.06 107.001C162.692 100.279 160.471 94.3547 157.395 89.2278C154.432 83.9869 150.502 79.8853 145.603 76.9231C140.703 73.9609 134.779 72.4797 127.829 72.4797C120.879 72.4797 114.955 73.9609 110.056 76.9231C105.271 79.8853 101.34 83.9869 98.2637 89.2278C95.3015 94.3547 93.1368 100.279 91.7696 107.001C90.4024 113.609 89.7188 120.673 89.7188 128.193Z" fill="white"/>
</mask>
<g mask="url(#mask0_30_31)">
<path d="M17.7519 90.6278C32.2336 84.5548 31.0535 58.0568 38.3066 62.5986C47.3731 68.2758 38.3066 41.1095 50.9198 47.1825C71.1339 56.9152 40.7009 64.5389 62.3666 76.9778C84.0323 89.4167 171.756 99.642 202.839 160.802C214.766 184.27 220.843 191.199 223.166 192.958C224.57 192.837 224.823 194.214 223.166 192.958C222.812 192.989 222.385 193.115 221.898 193.401C216.763 196.422 122.406 273.336 83.6205 225.168C44.8346 177 2.09417 132.401 13.321 120.526C22.3025 111.025 14.6184 97.1566 17.7519 90.6278Z" fill="url(#paint0_linear_30_31)"/>
<path d="M39.2409 66.8029C31.9877 62.2612 38.8572 79.7789 16.8175 87.8247C13.684 94.3536 21.1274 106.353 12.1459 115.854C0.919109 127.73 47.1703 180.27 85.9563 228.438C124.742 276.606 200.88 205.765 206.015 202.745C211.149 199.724 219.133 212.629 196.599 168.158C165.523 106.828 78.8569 98.1563 57.3454 76.3867C38.7095 57.5272 88.9205 36.7794 67.2701 41.1095C39.2409 46.7153 48.3073 72.4802 39.2409 66.8029Z" fill="url(#paint1_linear_30_31)"/>
</g>
<defs>
<linearGradient id="paint0_linear_30_31" x1="87.4684" y1="-29.7758" x2="62.9476" y2="328.852" gradientUnits="userSpaceOnUse">
<stop stop-color="#FF0000" stop-opacity="0.74"/>
<stop offset="1" stop-color="#FF0000" stop-opacity="0"/>
</linearGradient>
<linearGradient id="paint1_linear_30_31" x1="82.3228" y1="-32.8735" x2="57.802" y2="325.754" gradientUnits="userSpaceOnUse">
<stop stop-color="#FF005C" stop-opacity="0.74"/>
<stop offset="1" stop-color="#FF005C" stop-opacity="0"/>
</linearGradient>
</defs>
</svg>
